<svg xmlns="http://www.w3.org/2000/svg" xmlns:xlink="http://www.w3.org/1999/xlink" width="1080" zoomAndPan="magnify" viewBox="0 0 810 412.499988" height="550" preserveAspectRatio="xMidYMid meet" version="1.0"><defs><clipPath id="c4ae97a359"><path d="M 2.664062 2.398438 L 371.214844 2.398438 L 371.214844 408.492188 L 2.664062 408.492188 Z M 2.664062 2.398438 " clip-rule="nonzero"/></clipPath><clipPath id="63017a7bee"><path d="M 438.320312 71.339844 L 806.871094 71.339844 L 806.871094 355.398438 L 438.320312 355.398438 Z M 438.320312 71.339844 " clip-rule="nonzero"/></clipPath><clipPath id="5f0c3d6c99"><path d="M 394.378906 71.339844 L 416.035156 71.339844 L 416.035156 357.0625 L 394.378906 357.0625 Z M 394.378906 71.339844 " clip-rule="nonzero"/></clipPath></defs><g clip-path="url(#c4ae97a359)"><path fill="#ff834f" d="M 139.253906 89.425781 C 139.222656 101.6875 131.480469 112.597656 119.917969 116.691406 L 119.917969 128.097656 C 119.917969 133.425781 115.585938 137.757812 110.253906 137.757812 C 104.910156 137.757812 100.578125 133.425781 100.578125 128.097656 L 100.578125 116.691406 C 89.015625 112.597656 81.273438 101.6875 81.242188 89.425781 C 81.242188 84.078125 85.574219 79.746094 90.917969 79.746094 C 96.25 79.746094 100.578125 84.078125 100.578125 89.425781 C 100.578125 93.324219 102.941406 96.847656 106.558594 98.355469 C 110.160156 99.847656 114.316406 99.019531 117.09375 96.261719 C 119.851562 93.484375 120.679688 89.328125 119.1875 85.710938 C 117.695312 82.109375 114.160156 79.746094 110.257812 79.746094 C 96.21875 79.636719 84.273438 69.5 81.894531 55.652344 C 79.511719 41.820312 87.382812 28.269531 100.578125 23.480469 L 100.578125 12.074219 C 100.578125 6.730469 104.910156 2.398438 110.257812 2.398438 C 115.585938 2.398438 119.917969 6.730469 119.917969 12.074219 L 119.917969 23.480469 C 131.480469 27.558594 139.222656 38.488281 139.253906 50.75 C 139.253906 56.078125 134.921875 60.410156 129.59375 60.410156 C 124.246094 60.410156 119.917969 56.078125 119.917969 50.75 C 119.917969 46.832031 117.570312 43.308594 113.953125 41.800781 C 110.335938 40.3125 106.179688 41.136719 103.417969 43.914062 C 100.644531 46.671875 99.816406 50.828125 101.324219 54.445312 C 102.816406 58.0625 106.335938 60.410156 110.253906 60.410156 C 126.277344 60.410156 139.253906 73.402344 139.253906 89.421875 Z M 139.253906 157.113281 L 139.253906 311.808594 L 81.242188 311.808594 C 59.78125 311.855469 39.253906 302.972656 24.582031 287.300781 C 9.90625 271.628906 2.417969 250.5625 3.894531 229.132812 C 5.671875 209.238281 14.917969 190.757812 29.765625 177.386719 C 44.613281 164.03125 63.984375 156.78125 83.957031 157.097656 Z M 100.578125 253.796875 C 100.578125 251.226562 99.5625 248.769531 97.753906 246.960938 C 95.929688 245.136719 93.472656 244.121094 90.917969 244.121094 L 61.90625 244.121094 C 56.574219 244.121094 52.246094 248.453125 52.246094 253.796875 C 52.246094 259.128906 56.574219 263.457031 61.90625 263.457031 L 90.917969 263.457031 C 93.472656 263.457031 95.929688 262.445312 97.753906 260.636719 C 99.5625 258.8125 100.578125 256.351562 100.578125 253.796875 Z M 100.578125 215.125 C 100.578125 212.554688 99.5625 210.09375 97.753906 208.289062 C 95.929688 206.464844 93.472656 205.449219 90.917969 205.449219 L 61.90625 205.449219 C 56.574219 205.449219 52.246094 209.777344 52.246094 215.125 C 52.246094 220.453125 56.574219 224.785156 61.90625 224.785156 L 90.917969 224.785156 C 93.472656 224.785156 95.929688 223.769531 97.753906 221.960938 C 99.5625 220.136719 100.578125 217.679688 100.578125 215.125 Z M 170.582031 60.410156 L 209.257812 50.734375 L 209.257812 50.75 C 214.601562 49.464844 217.886719 44.089844 216.617188 38.757812 C 215.332031 33.414062 209.953125 30.128906 204.625 31.414062 L 165.949219 41.089844 L 165.949219 41.074219 C 160.605469 41.707031 156.796875 46.5625 157.429688 51.910156 C 158.082031 57.238281 162.921875 61.0625 168.265625 60.410156 C 169.042969 60.507812 169.820312 60.507812 170.582031 60.410156 Z M 216.617188 101.417969 C 217.300781 98.847656 216.917969 96.105469 215.523438 93.835938 C 214.125 91.566406 211.875 89.964844 209.257812 89.425781 L 170.582031 79.75 C 165.253906 78.464844 159.875 81.765625 158.589844 87.09375 C 157.320312 92.441406 160.605469 97.800781 165.949219 99.085938 L 204.625 108.761719 L 206.941406 108.761719 C 211.492188 108.890625 215.523438 105.828125 216.617188 101.417969 Z M 15.882812 108.761719 L 54.558594 99.085938 C 59.902344 97.800781 63.1875 92.441406 61.902344 87.09375 C 60.617188 81.765625 55.257812 78.464844 49.910156 79.75 L 11.234375 89.425781 C 5.90625 90.058594 2.097656 94.914062 2.734375 100.246094 C 3.367188 105.589844 8.222656 109.398438 13.566406 108.761719 Z M 61.902344 53.066406 C 62.601562 50.496094 62.203125 47.753906 60.824219 45.484375 C 59.429688 43.214844 57.160156 41.628906 54.558594 41.074219 L 15.882812 31.398438 L 15.882812 31.414062 C 10.539062 30.128906 5.175781 33.414062 3.890625 38.757812 C 2.605469 44.089844 5.90625 49.464844 11.234375 50.75 L 49.910156 60.425781 L 49.910156 60.410156 C 52.480469 61.109375 55.222656 60.714844 57.492188 59.316406 C 59.761719 57.9375 61.363281 55.667969 61.902344 53.066406 Z M 332.636719 173.339844 L 332.636719 295.566406 C 348.121094 288.1875 360.222656 275.230469 366.503906 259.269531 C 372.789062 243.328125 372.789062 225.578125 366.503906 209.632812 C 360.222656 193.691406 348.121094 180.714844 332.636719 173.339844 Z M 309.714844 120.546875 C 307.414062 118.691406 304.386719 117.976562 301.5 118.613281 L 158.589844 150.433594 L 158.589844 318.472656 L 301.5 350.480469 L 303.625 350.480469 C 306.195312 350.480469 308.652344 349.46875 310.460938 347.644531 C 312.285156 345.835938 313.300781 343.375 313.300781 340.804688 L 313.300781 128.097656 C 313.300781 125.164062 312 122.402344 309.714844 120.546875 Z M 81.238281 331.144531 L 81.238281 379.492188 L 81.238281 379.476562 C 81.238281 395.5 94.230469 408.492188 110.253906 408.492188 C 126.273438 408.492188 139.25 395.5 139.25 379.476562 L 139.25 331.144531 Z M 81.238281 331.144531 " fill-opacity="1" fill-rule="nonzero"/></g><g clip-path="url(#63017a7bee)"><path fill="#f3f4f6" d="M 650.535156 339.765625 C 644.550781 343.757812 637.621094 346.972656 629.746094 349.414062 C 621.875 351.851562 612.285156 353.847656 600.976562 355.398438 C 598.757812 337.4375 596.261719 320.640625 593.492188 305.007812 C 590.71875 289.375 587.667969 274.574219 584.34375 260.601562 C 569.929688 260.601562 556.234375 260.992188 543.265625 261.765625 C 530.292969 262.542969 518.039062 263.707031 506.507812 265.257812 C 501.851562 277.234375 497.304688 288.320312 492.871094 298.519531 C 488.4375 308.722656 483.890625 318.257812 479.234375 327.125 C 470.804688 325.574219 462.988281 322.914062 455.78125 319.144531 C 448.574219 315.375 442.753906 310.828125 438.320312 305.507812 C 456.726562 272.023438 472.246094 238.816406 484.886719 205.886719 C 497.527344 172.957031 510.167969 131.878906 522.808594 82.648438 C 531.457031 82.871094 539.21875 83.371094 546.089844 84.148438 C 552.964844 84.921875 560.394531 86.199219 568.378906 87.972656 C 588.335938 122.785156 605.023438 160.648438 618.4375 201.5625 C 631.855469 242.476562 642.554688 288.542969 650.535156 339.765625 Z M 544.761719 140.527344 C 540.769531 156.492188 536.609375 172.015625 532.289062 187.09375 C 527.964844 202.171875 523.472656 216.585938 518.816406 230.332031 C 529.015625 229.003906 538.773438 227.949219 548.085938 227.175781 C 557.402344 226.398438 566.492188 225.898438 575.363281 225.675781 C 570.925781 210.15625 566.160156 195.296875 561.058594 181.105469 C 555.960938 166.914062 550.527344 153.386719 544.761719 140.527344 Z M 690.785156 245.300781 C 691.007812 261.269531 691.503906 276.84375 692.28125 292.035156 C 693.058594 307.226562 694 323.46875 695.109375 340.765625 C 688.011719 340.984375 680.472656 340.820312 672.488281 340.265625 C 664.507812 339.710938 657.632812 338.878906 651.867188 337.769531 C 648.097656 299.851562 645.378906 265.535156 643.71875 234.824219 C 642.054688 204.113281 641.222656 172.234375 641.222656 139.195312 C 641.222656 131.65625 641.445312 123.175781 641.886719 113.75 C 642.332031 104.324219 642.886719 95.289062 643.550781 86.640625 C 655.082031 81.761719 667.777344 77.992188 681.636719 75.332031 C 695.496094 72.671875 708.96875 71.339844 722.050781 71.339844 C 749.105469 71.339844 770.003906 77.050781 784.75 88.472656 C 799.496094 99.890625 806.871094 115.800781 806.871094 136.203125 C 806.871094 160.371094 796.835938 181.882812 776.769531 200.730469 C 756.699219 219.578125 728.039062 234.4375 690.785156 245.300781 Z M 755.3125 144.851562 C 755.3125 130.878906 751.765625 120.070312 744.667969 112.417969 C 737.574219 104.769531 727.261719 100.945312 713.734375 100.945312 C 710.851562 100.945312 707.96875 101.109375 705.085938 101.441406 C 702.203125 101.777344 699.320312 102.273438 696.4375 102.941406 C 694.886719 120.457031 693.667969 138.140625 692.78125 155.992188 C 691.894531 173.84375 691.226562 192.414062 690.785156 211.707031 C 712.292969 206.386719 728.425781 198.125 739.179688 186.925781 C 749.9375 175.730469 755.3125 161.703125 755.3125 144.851562 Z M 755.3125 144.851562 " fill-opacity="1" fill-rule="nonzero"/></g><g clip-path="url(#5f0c3d6c99)"><path fill="#4d4d4d" d="M 394.378906 71.339844 L 416.035156 71.339844 L 416.035156 357.0625 L 394.378906 357.0625 Z M 394.378906 71.339844 " fill-opacity="1" fill-rule="nonzero"/></g></svg>