<svg xmlns="http://www.w3.org/2000/svg" xmlns:xlink="http://www.w3.org/1999/xlink" width="1080" zoomAndPan="magnify" viewBox="0 0 810 599.999999" height="800" preserveAspectRatio="xMidYMid meet" version="1.0"><defs><clipPath id="48d935fbdc"><path d="M 15.976562 141.554688 L 307.246094 141.554688 L 307.246094 462.492188 L 15.976562 462.492188 Z M 15.976562 141.554688 " clip-rule="nonzero"/></clipPath><clipPath id="f16bad38e4"><path d="M 382.625 140.59375 L 796.601562 140.59375 L 796.601562 459.664062 L 382.625 459.664062 Z M 382.625 140.59375 " clip-rule="nonzero"/></clipPath><clipPath id="a1e2cb3d76"><path d="M 333.265625 141.554688 L 357.589844 141.554688 L 357.589844 462.492188 L 333.265625 462.492188 Z M 333.265625 141.554688 " clip-rule="nonzero"/></clipPath></defs><g clip-path="url(#48d935fbdc)"><path fill="#ff834f" d="M 123.925781 210.332031 C 123.902344 220.019531 117.78125 228.644531 108.644531 231.878906 L 108.644531 240.894531 C 108.644531 245.105469 105.222656 248.53125 101.007812 248.53125 C 96.785156 248.53125 93.363281 245.105469 93.363281 240.894531 L 93.363281 231.878906 C 84.222656 228.644531 78.105469 220.019531 78.078125 210.332031 C 78.078125 206.105469 81.5 202.683594 85.726562 202.683594 C 89.9375 202.683594 93.363281 206.105469 93.363281 210.332031 C 93.363281 213.414062 95.230469 216.199219 98.089844 217.386719 C 100.933594 218.566406 104.21875 217.914062 106.414062 215.734375 C 108.59375 213.539062 109.246094 210.253906 108.066406 207.398438 C 106.890625 204.550781 104.09375 202.683594 101.007812 202.683594 C 89.914062 202.59375 80.472656 194.585938 78.59375 183.640625 C 76.714844 172.707031 82.929688 162 93.363281 158.214844 L 93.363281 149.203125 C 93.363281 144.976562 96.785156 141.554688 101.007812 141.554688 C 105.222656 141.554688 108.644531 144.976562 108.644531 149.203125 L 108.644531 158.214844 C 117.785156 161.4375 123.902344 170.074219 123.925781 179.765625 C 123.925781 183.976562 120.503906 187.398438 116.292969 187.398438 C 112.066406 187.398438 108.644531 183.976562 108.644531 179.765625 C 108.644531 176.667969 106.789062 173.886719 103.929688 172.695312 C 101.070312 171.515625 97.785156 172.167969 95.605469 174.363281 C 93.410156 176.542969 92.757812 179.828125 93.949219 182.6875 C 95.128906 185.546875 97.914062 187.402344 101.007812 187.402344 C 113.671875 187.402344 123.925781 197.667969 123.925781 210.332031 Z M 123.925781 263.824219 L 123.925781 386.082031 L 78.078125 386.082031 C 61.117188 386.121094 44.894531 379.097656 33.296875 366.714844 C 21.703125 354.328125 15.785156 337.679688 16.949219 320.742188 C 18.355469 305.019531 25.664062 290.414062 37.398438 279.847656 C 49.132812 269.292969 64.441406 263.5625 80.222656 263.8125 Z M 93.363281 340.238281 C 93.363281 338.207031 92.558594 336.261719 91.128906 334.832031 C 89.6875 333.390625 87.746094 332.589844 85.726562 332.589844 L 62.796875 332.589844 C 58.585938 332.589844 55.160156 336.011719 55.160156 340.238281 C 55.160156 344.449219 58.585938 347.871094 62.796875 347.871094 L 85.726562 347.871094 C 87.746094 347.871094 89.6875 347.070312 91.128906 345.640625 C 92.558594 344.199219 93.363281 342.253906 93.363281 340.238281 Z M 93.363281 309.671875 C 93.363281 307.640625 92.558594 305.699219 91.128906 304.269531 C 89.6875 302.828125 87.746094 302.023438 85.726562 302.023438 L 62.796875 302.023438 C 58.585938 302.023438 55.160156 305.449219 55.160156 309.671875 C 55.160156 313.882812 58.585938 317.308594 62.796875 317.308594 L 85.726562 317.308594 C 87.746094 317.308594 89.6875 316.503906 91.128906 315.074219 C 92.558594 313.632812 93.363281 311.691406 93.363281 309.671875 Z M 148.683594 187.402344 L 179.25 179.753906 L 179.25 179.765625 C 183.472656 178.75 186.070312 174.5 185.066406 170.289062 C 184.050781 166.0625 179.800781 163.46875 175.589844 164.484375 L 145.023438 172.132812 L 145.023438 172.121094 C 140.800781 172.621094 137.789062 176.457031 138.292969 180.683594 C 138.804688 184.894531 142.628906 187.914062 146.855469 187.402344 C 147.46875 187.476562 148.082031 187.476562 148.683594 187.402344 Z M 185.066406 219.808594 C 185.605469 217.777344 185.304688 215.609375 184.203125 213.816406 C 183.097656 212.023438 181.320312 210.757812 179.25 210.332031 L 148.683594 202.683594 C 144.472656 201.667969 140.222656 204.277344 139.207031 208.488281 C 138.203125 212.714844 140.800781 216.953125 145.023438 217.96875 L 175.589844 225.613281 L 177.417969 225.613281 C 181.019531 225.714844 184.203125 223.292969 185.066406 219.808594 Z M 26.425781 225.613281 L 56.992188 217.96875 C 61.214844 216.953125 63.808594 212.714844 62.796875 208.488281 C 61.78125 204.277344 57.542969 201.667969 53.316406 202.683594 L 22.753906 210.332031 C 18.539062 210.832031 15.53125 214.667969 16.03125 218.882812 C 16.535156 223.105469 20.371094 226.117188 24.597656 225.613281 Z M 62.796875 181.597656 C 63.347656 179.566406 63.035156 177.398438 61.941406 175.605469 C 60.839844 173.8125 59.046875 172.558594 56.992188 172.121094 L 26.425781 164.472656 L 26.425781 164.484375 C 22.199219 163.46875 17.964844 166.066406 16.949219 170.289062 C 15.933594 174.503906 18.539062 178.75 22.753906 179.765625 L 53.316406 187.414062 L 53.316406 187.402344 C 55.347656 187.953125 57.515625 187.640625 59.308594 186.535156 C 61.101562 185.445312 62.367188 183.652344 62.796875 181.597656 Z M 276.757812 276.648438 L 276.757812 373.246094 C 288.996094 367.417969 298.5625 357.171875 303.527344 344.5625 C 308.488281 331.960938 308.488281 317.933594 303.527344 305.332031 C 298.5625 292.734375 288.996094 282.480469 276.757812 276.648438 Z M 258.644531 234.929688 C 256.828125 233.460938 254.433594 232.898438 252.148438 233.398438 L 139.207031 258.546875 L 139.207031 391.347656 L 252.148438 416.644531 L 253.832031 416.644531 C 255.859375 416.644531 257.804688 415.84375 259.234375 414.402344 C 260.675781 412.972656 261.476562 411.03125 261.476562 409 L 261.476562 240.894531 C 261.476562 238.574219 260.449219 236.394531 258.644531 234.925781 Z M 78.078125 401.363281 L 78.078125 439.574219 L 78.078125 439.5625 C 78.078125 452.222656 88.34375 462.492188 101.007812 462.492188 C 113.667969 462.492188 123.921875 452.222656 123.921875 439.5625 L 123.921875 401.363281 Z M 78.078125 401.363281 " fill-opacity="1" fill-rule="nonzero"/></g><g clip-path="url(#f16bad38e4)"><path fill="#4d4d4d" d="M 620.996094 442.105469 C 614.273438 446.589844 606.488281 450.199219 597.644531 452.941406 C 588.804688 455.679688 578.03125 457.921875 565.328125 459.664062 C 562.835938 439.492188 560.035156 420.621094 556.921875 403.0625 C 553.804688 385.503906 550.382812 368.875 546.644531 353.183594 C 530.453125 353.183594 515.074219 353.621094 500.503906 354.492188 C 485.929688 355.363281 472.167969 356.671875 459.21875 358.414062 C 453.984375 371.867188 448.878906 384.320312 443.898438 395.777344 C 438.917969 407.234375 433.808594 417.945312 428.578125 427.90625 C 419.113281 426.164062 410.335938 423.175781 402.238281 418.941406 C 394.144531 414.707031 387.605469 409.601562 382.625 403.621094 C 403.296875 366.011719 420.734375 328.710938 434.929688 291.722656 C 449.128906 254.734375 463.328125 208.59375 477.523438 153.296875 C 487.238281 153.546875 495.957031 154.109375 503.679688 154.980469 C 511.398438 155.851562 519.746094 157.285156 528.710938 159.277344 C 551.128906 198.382812 569.871094 240.910156 584.941406 286.867188 C 600.011719 332.820312 612.03125 384.570312 620.996094 442.105469 Z M 502.183594 218.308594 C 497.699219 236.242188 493.03125 253.675781 488.171875 270.613281 C 483.316406 287.550781 478.273438 303.742188 473.039062 319.183594 C 484.5 317.691406 495.457031 316.507812 505.921875 315.636719 C 516.382812 314.765625 526.59375 314.203125 536.558594 313.953125 C 531.574219 296.519531 526.21875 279.832031 520.492188 263.890625 C 514.761719 247.949219 508.660156 232.753906 502.183594 218.308594 Z M 666.207031 335.996094 C 666.453125 353.929688 667.015625 371.429688 667.886719 388.492188 C 668.757812 405.554688 669.816406 423.796875 671.0625 443.226562 C 663.09375 443.476562 654.625 443.289062 645.65625 442.667969 C 636.6875 442.042969 628.96875 441.109375 622.492188 439.863281 C 618.257812 397.269531 615.207031 358.726562 613.335938 324.230469 C 611.46875 289.730469 610.535156 253.925781 610.535156 216.8125 C 610.535156 208.34375 610.785156 198.816406 611.28125 188.230469 C 611.78125 177.644531 612.402344 167.496094 613.152344 157.78125 C 626.101562 152.300781 640.363281 148.066406 655.929688 145.078125 C 671.5 142.089844 686.628906 140.59375 701.328125 140.59375 C 731.714844 140.59375 755.191406 147.007812 771.753906 159.835938 C 788.320312 172.664062 796.601562 190.535156 796.601562 213.449219 C 796.601562 240.601562 785.332031 264.761719 762.789062 285.933594 C 740.246094 307.105469 708.050781 323.792969 666.207031 335.996094 Z M 738.6875 223.164062 C 738.6875 207.472656 734.703125 195.332031 726.734375 186.738281 C 718.761719 178.144531 707.179688 173.847656 691.984375 173.847656 C 688.746094 173.847656 685.511719 174.035156 682.273438 174.40625 C 679.035156 174.78125 675.796875 175.34375 672.558594 176.089844 C 670.8125 195.765625 669.445312 215.628906 668.449219 235.679688 C 667.453125 255.730469 666.703125 276.59375 666.207031 298.261719 C 690.367188 292.285156 708.488281 283.007812 720.570312 270.429688 C 732.648438 257.847656 738.6875 242.09375 738.6875 223.164062 Z M 738.6875 223.164062 " fill-opacity="1" fill-rule="nonzero"/></g><g clip-path="url(#a1e2cb3d76)"><path fill="#4d4d4d" d="M 333.265625 141.554688 L 357.589844 141.554688 L 357.589844 462.492188 L 333.265625 462.492188 Z M 333.265625 141.554688 " fill-opacity="1" fill-rule="nonzero"/></g></svg>